# xmcd
#
# Track frame offsets: 
#        150
#        9958
#        29703
#        50010
#        69713
#        91535
#        123625
#        144703
#        166633
#        188358
#        208280
#        221298
#        244675
#        264105
#        282560
#        302123
#        322443
#
# Disc length: 4399 seconds
#
# Revision: 12
# Processed by: cddbd v1.5.2PL0 Copyright (c) Steve Scherf et al.
# Submitted via: ExactAudioCopy v1.3
#
DISCID=f9112d11
DTITLE=Aaliyah - One In A Million
DYEAR=1996
DGENRE=R&B
TTITLE0=Beats 4 Da Streets (Intro)
TTITLE1=Hot Like Fire
TTITLE2=One In A Million
TTITLE3=A Girl Like You
TTITLE4=If Your Girl Only Knew
TTITLE5=Choosey Lover (Old School-New School)
TTITLE6=Got To Give It Up
TTITLE7=4 Page Letter
TTITLE8=Everything's Gonna Be Alright
TTITLE9=Giving You More
TTITLE10=I Gotcha' Back
TTITLE11=Never Givin' Up
TTITLE12=Heartbroken
TTITLE13=Never Comin' Back
TTITLE14=Ladies In Da House
TTITLE15=The One I Gave My Heart To
TTITLE16=Came To Give Love (Outro)
EXTD=
EXTT0=
EXTT1=
EXTT2=
EXTT3=
EXTT4=
EXTT5=
EXTT6=
EXTT7=
EXTT8=
EXTT9=
EXTT10=
EXTT11=
EXTT12=
EXTT13=
EXTT14=
EXTT15=
EXTT16=
PLAYORDER=
